<svg width="640" height="512" xmlns="http://www.w3.org/2000/svg">
 <!--! Font Awesome Pro 6.4.0 by @fontawesome - https://fontawesome.com License - https://fontawesome.com/license (Commercial License) Copyright 2023 Fonticons, Inc. -->

 <g>
  <title>Layer 1</title>
  <path fill="#3d9ae0" id="svg_1" d="m384,96l0,224l-320,0l0,-224l320,0zm-320,-64c-35.3,0 -64,28.7 -64,64l0,224c0,35.3 28.7,64 64,64l117.3,0l-10.7,32l-74.6,0c-17.7,0 -32,14.3 -32,32s14.3,32 32,32l256,0c17.7,0 32,-14.3 32,-32s-14.3,-32 -32,-32l-74.7,0l-10.7,-32l117.4,0c35.3,0 64,-28.7 64,-64l0,-224c0,-35.3 -28.7,-64 -64,-64l-320,0zm464,0c-26.5,0 -48,21.5 -48,48l0,352c0,26.5 21.5,48 48,48l64,0c26.5,0 48,-21.5 48,-48l0,-352c0,-26.5 -21.5,-48 -48,-48l-64,0zm16,64l32,0c8.8,0 16,7.2 16,16s-7.2,16 -16,16l-32,0c-8.8,0 -16,-7.2 -16,-16s7.2,-16 16,-16zm-16,80c0,-8.8 7.2,-16 16,-16l32,0c8.8,0 16,7.2 16,16s-7.2,16 -16,16l-32,0c-8.8,0 -16,-7.2 -16,-16zm32,160a32,32 0 1 1 0,64a32,32 0 1 1 0,-64z"/>
 </g>
</svg>